<mxfile host="app.diagrams.net" modified="2021-11-23T16:55:56.395Z" agent="5.0 (X11; Linux x86_64) AppleWebKit/537.36 (KHTML, like Gecko) Chrome/92.0.4515.134 Safari/537.36" etag="yH-Hnzc0bZI8et8wl5d7" version="15.8.3" type="github">
  <diagram id="RhH-oF9sPiuibgzlJLyH" name="Page-1">
    <mxGraphModel dx="1412" dy="714" grid="1" gridSize="10" guides="1" tooltips="1" connect="1" arrows="1" fold="1" page="1" pageScale="1" pageWidth="827" pageHeight="1169" math="0" shadow="0">
      <root>
        <mxCell id="0" />
        <mxCell id="1" parent="0" />
        <mxCell id="s3pSolG40u4lfaMQilxl-1" value="" style="shape=image;verticalLabelPosition=bottom;labelBackgroundColor=#ffffff;verticalAlign=top;aspect=fixed;imageAspect=0;image=data:image/png,iVBORw0KGgoAAAANSUhEUgAAAOgAAADTCAIAAAAEdshBAAAgAElEQVR4Aey993MbWZbv2b/vL/sH7NuI3V/erJnX/Wamu7qcVCWp5B0lihQpiZIoQ3kv0XvvvfeeAAlLEh6JTHjv6OAzAXpPeE9uJFld0+Ztqad74nVJRMUNBMBKCJnnfvLk95577rm/2ov8F7HAJ2iBX32C5xw55YgF9iLgRiD4JC3w14LrDoRtW96pZad8wSWwOgVWFxeJtIgF/tMswLc6RTaXYsE1vexa2PZ6A6Gfv58+Am54d8+65ZHOOzmwK9IiFvifZgEQRiFe2vHu/v/w+3PgLux4+dYIspE79h9pAZHNteb0/yW9/2Nw/cGwYiGC7D+yw/6n+bZP4oemll3B8J843/8BuA5vMOJoP4nuPFQnKZ53efz/Lnz/HNwdT4CHRDxNxAK/RAsIbS73H9j9E3Dd/hAPiSiEX2KfHSrn+jMXK7Q6A6Hw3t4fxXF3d/ci0YOfMVnkf/1CLKBcdP4JuIa1iKeJWODTsIBty/OjVHD7QyAcEQmfRrf9QjzfP/A0+FbXj+BOL0eojVD7KVkABTcQCkfc7T/Qf0R++m+wAAqudcvzN3wz8pWIBf6BFkDBVS9+Ss+If6CxIj/9y7EACi7PGgE3YoFPzAK/8gfDv5zbKHImEQv8lRb41bY78FceGjksYoFfjgV+te7y/3LOJnImEQv8lRb41YrD91ceGjksYoFfjgUi4H5ig5JfDjr/2DOJgBsB95O0QATcT7Lb/rHe7pfw6xFwI+B+khaIgPtJdtsvwef9Y88hAm4E3E/SAhFwP8lu+8d6u1/Cr0fAjYD7SVogAu4n2W2/BJ/3jz2HCLgRcD9JC0TA/SS77R/r7X4Jvx4BNwLuJ2mBCLj/+d0Gwi4Qdv7Rq2v/Pfr6p74qskD1zwzyH/gYAfc/YKw/xe6nL3o4sIcDuzkory4IdnItTi7s2G92rsXBtbh+atA+0xzEud8c6Ouf0/zTPxt583MWiID7c9b566g6ABdl98CzQvv4HhAMWVyQxQ1Z3Nz914MDfvxnI9T+HTdtBNy/H1z3vrtF8QVRv+vmwB4AdgOwd795APQj2vbJdv/hmIMjUT8daX+DBSLg/r3c/EG5HvDqYcNeNuxjIT4W4t9vPhbiYSEe9n4DkJ/cs5cDe0GL92/os8hXOLArAu5/Jrhs2LdPrZ+FBJhoCzIRH9PqYVpRdlmIl4WgB3BgP8cS4Fj8oMW/r4//3nM4hChHwP07oXFDVh/4Bz8KIF6m2cNG/AASYME+NhIAbD4W4mLBTrbVzbai/pg7H+JawxxLADD7QTgQAfdvu+si4P5d4AKwi2V2ARY3iHj3mwf8McLghhAP1+rhWt0g7AAsOyDiBBE3x+Jio8d7QTgAIkFOBNy/VeJHwP27wOXAHvTRj/j2qXVDsIsLO/mwk2exc01b+22Ta97gW7YEVofA6uIhbi6CDssgq59jDbBQjRsZn/0tXRAB92+x2k9PNwD2MC1ehsnNNDkBi5MHu7imbYl1RwpviQzLUtOqzLwmM2/ILJsi8wbPuA4aNyGLnWNxsmE3G/EA1sjg7G+0fwTcv9FwB+wCqMf1c6x+1ONanKBxi2dcp8p0g5Ng6zCxrnukoXesfYTSR2SPsmQ0hRHUrQD6df68B7R5GGY7E3b8dA9E3vyHLHDYwQXQKJWXjY6u/oRg9n4QAI0JwB424kYHWBbUp3L2JxdAix2yOPhWl8CyIzSss1QWIqTuIbAaBwiFte0vkrPvJL248+Dp3YfP7j15ffPBi6j4+xdjE+PuvXyWUljc3N+BZxJ5Gs7MvBjZ5MI7XMTJtboAsx04+AnEzbF6OIgHDQNb0NljCHb81P64ICxwiGXGYQeXjYao/CzEC8AuDoLycUAGC/EyrAGaLci0BhiwiwG7AMQNwE6OeYeP2EWInW/cAGYWWXJ9a+fgsxfvEm4/ePz0ZXJq5uu3H65Gx965c+/J42fv36XkF5WnZBc+fv4u5vqdkycvffPtD6fPRN24+eDO/Wc5xVUEOhectUGmdci8wUPsEGwHzHYQ8bBhN8viBaxBAPZAsJ37Y9tBKYft+4kQ6C2Eio3Dym4EXC/zJ3DRzBgUCw7sOgCXYQ0wEC/b6gEQF9tiBy12AbwjRbbZGrifws2t64578PKHM5fPnou6Hnf73v3HSY+ev36TnJdXVJBfUpBfkpNd8PL1h6Snrx89ef3wwfM7tx5ev5Zw6fy1H06cP37i3LlL16JiE/LqO3FcBThnE1o2RIgdHdVZ0Tk2APYB1iDL7OagZ+WE0FfHfkM//rHf/bNnxSH5GAHXy7T69j3uQZbMj0ywETfT6mNafQyLk4O4eFYXH7YLzFs8/TIRUuRWt8U9eBGd8PDmvadPX6bkFVXl5pe/fpv2/OWHl68+PH788tXLd2/fpNy/9yj2+q1bCffuJT5OiE+Mi74ZF33zZkzCjdiEK5dio6Ji42/du3rr/uWb9zLK6sf5SpFxBdKv8Cx2CHX/HtAWABAvgG47hwYiAMS1//5HSXPI8Y2A60Fns1Cl+8fgOlEXi7jZiJs37wFNWzzTJk+3MkQTFjf23Ex6dTbqekz87TPnLp07f+VC1I3T52NPnY2+Ep0Qc/1uXNzdxLuPEu8kJd55mHDjTmx03LWomIunLvzwzbGT3xy/cOzs2aOnjn353cVTF+JjbsREx96Iv3nj1u2bd+7fffQio6S2n8zhzCwKESdkcYIWVAzsN+++pPEdyPEDfA+07yHxr395mYcdXAAdeKGDMzaCujTUQOhMwY+PYwh2QqZNGWLnaK0N/aR7r9O/P3Pl6+9OfvX10ePfH792OepG7I0nzz68eJn+8mX648dvr8fciYm+eeVi9KWzl45/+/2xr4+cPnrs2O+/+v7fvjj15Tdnvvz21O++OvPltyd/99UPX3x18psjp48ePXXk67PHvos6dy7x7r34hPtRN+7n1nTiuGqeaZMPOwGTff/+QeeKmYifiQQObjMATY90HOjdv+zUw/CXQw/ufjz1D47NzUZcIOKCEBdo2eFbHTzLltCwQhNPP/6Qd/ZqwsVrCV9+fezE8dMxV6KfJN5/8eDhg4S7t+Lv3Yi7Fx9z5+rFmOjzV6PPXb5w/IeL3x8/f+TohaNHY0/9cPfS+ftRF++eO33n9MnEs6dvnTh+9ZuvLn75uzNf/Ovxf/nn7//5n079269P/PZfok6ffHAn8dLla9+cuHDl9pPaPgJVZhTAdgh2slB8vXSzhwH7mYifva8f9sHdObRiNwLugST49wQuEEEjU3zELoC3hOY1lmzmVWr+d6cuXYtLPH026vSpCxfPXY65fPXahcuXfjh99rsT546dvXDi/OWTFy4dP3315NnrZ87eOnf2/uULDy9feHYt6k18dNrd6wWP7pY+vV/94lHd66clSXc/xF5+cuHknZNH4r/7/aXf/vOp//ZfT/7m/7n07Zf3YmOfPHh47PjpI8fOnrl6M+ldFomv5uqXuZYtrtXN2Wd3fyjpAxDU4/IsEXD/NIp5GJ41P13jvpw9SN1CNQPLtMOzOnnmTZFlA9CYcsvqYuIS4uLvfv/9qW++/v6r33/73dffnzhy/OKpC7eu3Ui6mXj/WvyT+IRXt+8+j49/ERf7/lZcXtLd8hcPK18+aHj3pCvrzXBhCrY4bawgdSw/ZTQ3eSD9VX/ay570lw1vHhTdv550+sjV3/23K1/85uIX//36yeOvHyTeT0i4dP7S8R/OnDp3OS7xUWV7v8CwJIA3uVYXC3bvSwV0xLYP7o8xkJ+u5fC8Oewe96CnD6Yb9pNovRyrG4LtQmSLNzefW9sWE38n5lrcl1988/WXR74/euLU8TOXzkbdvJ7w4E7SnbjEm5djn8TEvo6PT0u8m/vofuXrZ52ZH/Dl+Yymcn5XjXKoRYtpnxlrn8N16LDts8Mt0wONyq4aWUeVuKMCaCwgl6U3vXuSHHsp8Ycj0V/927VjXz+4dvn+9WsxF8+fPH7sxPFjx0+evHQ9vrZnCJiycC1bHASN06Hh231wIxr3TyaNDs9d+9OVHsyf7YPr4SAuLrwjsmz0TXJuPXkTe/3W9avXos5fPnXs5IXTF27G3Lx6MfrE0ZPffnH07LFzd69e/5Bws+TZ4978bGpLrRTTq5vA2piEJYC4zZ9w8Cd3+BMO0aRbRPGKqG7ehAsiO0DiFgu3zhpdpA4a8F2S/hZiRWHtq0fJcVfunPou7sS38WdPXDn53aVTxy6d+eHoka+/+e67qPhbBbUtXN0i12IH0FiHF0CXCTmhP0Sdf7qQw/Mm4nHRKCmALlvws2E/OlNlcYgsO2L9YnFd6+2kJ7GxN2Kjr587ff7r33/93bdHThw5cuKrr07+7our3x55ExvbkvaeXFssGmo30okLfOa6FHJqJZ4piVcr8k8JAxqBX8P3afg+Nc+nAn1yjlfK8ojpHhHdLaTucMkbbAJCGpod7uI1VozlphTcjU06ffT2qSNXvv/y4vFvr5w9efL4iVOnLp344Uxc/M2SmnpQqROYtiHYzzB5AasftO1P5h1KmRcB1wVaPBzYB6DU+kGLBzLaJeZNocb8OjnzytWYixeu/HD8zO+/+PqL3/3+699/ceLbry4e/Tr62y/y7yewm2vUmC4ra3RTwnRrhZ5ZmUen9Bm0fr0moFOF5pShWVlwVuaflfpnJP4poU8j8Kq4HjnglQFeCdMpoNih8S0GYW0Sa8F2aXobJkoy6p7dSTp7NPa731/+7qtTX//u+Lfff/vVD99/892VC2cfPrhbVF4jNW5BRjdo3WXCXrbNDVoPaVZkBNyDcgfeP4DrFVicYuN6H44ae/Pu2XMXL164cuLEmS9//+3vf/vFV//2Lye//iL25NGiZ/cF/W0WytgaNLkjY3i0/IBOHjCofAa13zgVMGqDenVYpwrrFCGdPKCTB+dkgRlxYEqE+mAV5FeCfjnbLaI5eZNbTOIGfWxpYshGHpgeaqVV57cmP3sfFxV/4ui140fPf3/izPELx745cu7ksRvx0XeTHmOoIr7BDqHLK9zAvAtADml+WQTcA32/n4oF+0CLh2faEc4tp+ZVXrp6/fSps199eeSrr45++cVXv/31r4/862+unz5W/v6pkjCwIWLuCBl+FRic4Qd1krBJFbZMBc1TfuPUgccNzilDc/KgTh6Yk/lQp/ujeAiouUEVN6DgeCUMl4BqByd2OOQNJm6DiVucHJnFdkr6mvFleekJcY8unLt94eL5YycvnDh+5cLJGzeib929m5xfOUSTCCxOwLzDsu5wrIe0MkMEXBRcdAJifzU5aHHzjTt0if520utLl6+dPn7q6y+PHPnm2PGj3534+sv4sz+UvXsqxvWsiRnbYnpoihee5u8axEGdJGhUhixTAfOUz6D1GTR+nSqgU6KOVif36+T+OVlgVuyfFvqnBH4tL6jhBVSgR8pwCal2aMIOjW+y8BvMsRUqZn5i2EQYnML24Yrzi+/ffRVzLe7MmfjL5y6cPnrh4qmkJ4+ev0t7n1MxIZ7jmjdYyCZoi4B7KDU+OgxHnGw0M8EDIB4Idoks9uEJ/tW4xHNnL509cerEdydOHD1+8cSJO1EXKj+8kOJ6N+Usj4YTnIJ2Z3jhWX5IJwzoJUGTKgxPB+Fpv2nab9T6jeqAXhXSKYJ6RcCg8Otk/jmJf0YUmBYegOtXcdxShlNItXMn7NzxLYCwxcZvMEZXKSNrdDxCGlH2dZJLCrJvxyecOZ4Qdfb6lbPx8VefPH14/0HSo+dvO0cpoGERXLCzI1Lh8ERS/vxKfwTXDSBursUpNG0X1vdevnrrwrnL8VHRcVFXL588eeviuYr3L2W4PoeK41EDAS0nNA2FZnmhOX7IIAoa5SGzOmDRBixTKLimqYBREzSoUGr1Cr9e7p2TemaE3mmhbxr1uAEN7wBch4i6wx3fBkmbbNwGc3SbNbpJx67TR63EodmhbmFrXWfK69SE2AfXLkZfPH316oWEW3Fx16KfPnlW1943IZ0FrNsRcA9pKBdAnGyrg73PLgd2cS1OYGrp0bv8mOuJMVExibFxMWfP3Im6UJ32Vkka3JGx/Cp2QMkMaQGUWp0gaBCGjOKQWRE0q/1mrQ9t037zlN+kCeyD69fLPTqpZ1bi/gO4vimeX8vzq0G3jOmU0D1iNDTm5I3bQYKDg9tiYlapIzChb26kU9bdSCrJaU97/fr29YTrVy9ePHf18oUnd28/TLidm1c2KZriWB1AJKrw537ocCiHvwDXPsbRPPtQeP/Bi1vX4qNPnb5/Laoy9TU42L4smPQpWSEVY1fN2psGw3pBwCgJmKQhkyRkVgQsar9Z4zVpDsD1mTT+A49rVPqMCq9e5tNJ/DpJcE4SnBWGZoShKdTpeuQsv4zllzI8IqqLR3aCuC02Zpk6ZCH2TI20SrrrWHVF+JKs1HsJ92/EX4mKiomKenA9NuHy5Tcv3o9QBWzYzo6AGwEX9bhme8+44GVaUWLis5iLV25dvJSelEhqqTAwcRv8ca9kYldJ29Mwd2fAoF7gNkrcRmnAKA6Y5QELKhV8Fq133+P6TBqfQRUwKIImVcCs8puUQZMibFKEjfKwXrKrk+zOiUJTvIAaDMjZfhnTi4JL3OGMbrBGlmgD8HjvFLZV3FvLaSrDF2XkPU16dPtObGxcfHRMwsULCefOPU96XteNQ9elocslDuPT8rBHFf7M40Km7aYRxuO3OYn3nlw5e+H13bu1aa/BvnozA7vJIwWklF0lbVfDDE8BvjmuUydw6EVeg9hvkvthTQCZ9lmn3fC0zzLlN++PzwyqgEmLvjdpgmZ12KzeNSvDRvkuSrAspJMEZoQhLTek4gRkDK9owsnDb7KHl6n9toluHa5NMVjHby0by0+tePP8VeKdW7HXYy9djj179vr58/fuJKUXN6Ir3Q8ltZHaYWhIAUBQjbufmu0CjVtlnfin73Pv3H0Ue+lKyuOkjux34v46GxO7LRj3yhl+JdOvYfm1gG8W9Bl4PpPIb5b7LCqfVeubn/EuzHhs0wHbbMg6GzBpA3q13zjrs+j9lrkgPBOGp3dh7S6iCVpUXiP6LRcqHgR+LehTMANyhk804QDHVqm9CLHVONowM1wt6SwjV2RVvrifcuf6k/hrcRfORV+6fPHSlYvXbj1JzhXqlnjmncPJbsTj/jg4OwCXo9/Mqe9/+i7nXuKT2zHX0588as98JR9qWAbxW4Jxp5TmUbIC01BglhcwCAJmURCWhWBNAFYH56fDy3OhlbnA4nTAqg1Y1CGjEp0zM04FYV3QPB02a3bNql2zImySBfRij07kNclceolnVuQ9iO+quW4pa5s3sQESFmjDU5hm1VCdfKiR0Vjc9P5pVmLci5vX7l67cuXipfMXr5y7eiPuwQuaaEZgiYB7KB86P0mF/YIJLo5uI7u6J+lFetL9p48Sbqc8TOzKea0ZbVnlEreFky45w60EfFN8v04cMCuCVnXIpgnD2qBJFYI1QUTjNkq9RqlXLw7oRCGdKDQnCOvlYZN616DYRaWtMDzL82nYbjXLpWbtqFjrMoaVR7HxaDYu1QpMmGh4w+SYmYY3M4jTEyNyfK9kpJ3fU9ef96Hw0e23CbGPb1yPvnDp5MlzJy9cuxh/b4DMiYB7GAU+B3YBsOsgHHYALqjfzK3tTXz87mnSsycJCR/uJQwVJ88Q2ld5RDR0peTYpawtKXtLyd3UCNamhGtq3gKXYgNIywLKtoK9rWBuyekuDcs3xfapGX4NPaDlBKe4oSnQr2S4xOQd/tgqe8BIbFUNVjPrM/GlH0ZK0kfKsrHlubiKAnJtKaWhitZazx3sUk/iFRN4IaZH1NeEr8gpf3Hv7Y1rT+Ji7sRcP3v6wrHTl89cvVXaMgAZ1iNS4TCyi4KLBnHRiVO0doF+Pbuq4+7D1y+fvHhwPSbj4Z3JhkIztX9TNOEQ01a548bJ4SnSoGysj93XQmiuwlYXjBWnDWS8whV+4LaXKocbpseaFph924LRHQHWIyP4FZN+OdUvm7BzMYsTbXPDFfyGVFLe48EPt5seRVU/vFz5JL7iya2Kx7fqXt7vzng7nJ8+UJCBKS9gdrfxsINCTI9sqJXRVNb04VnKrdjncTH3Y+OuXrx67IcLpy7FpZc1cXRrEXAPJ7hOFjoH4eIgbhRc3Vp6aXPS0/cvkp48iI4qfvmI31e7AGA3BOOLzNHpsU5Bdx2nvYZcV9pbkN6Rnz5UmkMoSScUfsBkPp8sTRG3lyh6yuewdfOT7etAn1uIdYtwLgF+hzM8T2qa6snnlL8cz0ocehvX9Sy6Oely2/PYjnd3u1OThrKej+a+wRWkoMt7CtPx5bnEmmJae60U26XCtgv7GnBlObn3br2Jj31wLSY+KvbkqUvfnY56m18JzK1EwD2M4LIRFFzWj+A6QN1KRlnTw8evH95KuBd1oSnrnXKsfRnCLYE4PaFbOdAk7KrhddTxe5rEI11K4rCGNKQcauK3lNDK0tiV6VBNlqAhW95eoBupXqJ22LnDPinRKyGu0rpn+or51W9J6bdH3sQOvYnrfRE7+OEONiMJaMgSd5VODddPDTXIu6q4jUW0yixadS6ruQTsrJJjWrS4dtlwC6OpvP7N84y7tx9ciY6/FH32TNR3p6Mep+QxphYi4B5GcNFqdla07XtcBzS3klnW9CDp+Z2YmEfXLo/VFOuoQ2sCoo2J0Y40a4aaZrGd8CRmnUd1yECniudUQes8kpnco+6rkbQU8WoyhXWZ0qa82YGqxcmuHQjrFhHsvFEruVXZkc+peE1Ivzv0Om7g1Q1cxiN2VebsSAtC7V9mY9dB3CJtaG6kWTtQL2ot5dTnsxvygJZCyUDtFL5DhW0XdDcO5mbk37/3NDr2xsWr585GHT8bde9tBlVtjYB7SMFl/hG44OxyalFt4r3HCVeiXsRH0zpqLcDYmnDcyhyZHWszE3uWaRg7d8InY9sFlDWQuAoRbPRBPb59arBe2VGubCtRt5bM9lRZCe2brBGPeNwjGd/m4+Yp3Zq+cqgmBZd+f+jdbULWM1ppqrKnTj3YPEfuM9MwFhpGi+2AGoo4dQXcpiJhexm/vRRqL5H012hxbdO4bvlgG7G8sPB+4pv4G7cvX7t07sqp89GPUnLp2vkIuIcRXDbiYiIuVOOii3sd4NxyRmnD3btJCVGXUhLj+cPt81zSmnDcxsKax3uXaMNbAH5hYmBmsNFC6FqkDhkJncz6LEz207Gsp5Sid1BFhqqlFMa0rdNGHCAxqGCFp0GfmrUGjs5iGgTNueMFLzBpSbisF/SKLFJxRm/qq+6c920Zbzoz3owUprMayqhV+fiCD+SyNHZTEbezXNxfoxlrNYwPTo/1sptqqp4+fhsXf+9q7JVLMWcuxb7IKmJOR6TCoYzjghYXaNlPyUVXE2yC+sW8yrbE248exMTkPL6tJPWuCEnbYvIia8hK6VmiDZhwbVODjUZCH9hc0fr2Sd6tmEcnj9744jdPjn2VF3Men/NO1VU7Pz6wxhy18ydCas6eQRLSi7clNBOpR9ldxapMx2W+YFRmY7LfvT77fc2z+88unT333//f87/5v+O+/rf30efLHyeMlqRP1OaRq7MZTYX8nkolptlMGTFPYridDXVvX7yMi30YdzM6Ov7slRtv86uYs4scxA3CXo7ZB1n8PNgHwg6OdRuwbrOsO2yrAy2f+jm2wz5zBlm8PLMXQBxM2yZrfh0wLhXUdCXefnr38rXcJ4nqif4NMckuxC8z+1aZA8v0PhOujVSUXPf0bmlSYmrc9ZtHvo//5ljSqfNF9+7n3byeez1K2F69DhLtwkmPjOFXA2G9bNescat5CwycHtsp76hW9dSD9SV5cZfbPzzXEkYw5SUpN2IfnDqWdOpY4YObLy4cf37+SO7ty8N5bxmNhUBribS/bo7Ua6GP8vubG9NevbwZmxgbe/lSzLkrtzLKWkDDCgu2s81uHrILGoMsvYsDOwHrJtu2ybZts62fbTLDYQeXY/EDlhDT6qHP25nzWxzzWlkL5l7i21uX43NfPtfQ8ZtS6rYAvwIMLVB7lT3lg8kPCq6fbnh6d6K6lNHciC0tm2hsY7Z1ifr7lcO905geeHzQLaZ5JFSvjBZQs8MGWdik8WqFa+DE/CRGN9Ih76iZHelcYJFWeUwjlWCmkmbxGNVwL9hSSy7LIxZnNb9IzIk5m3HlRMOTm5SqbG57mXKk2UwdkY91d+S8f5Nw/UFcbOzV2KjoW8V1XRz9IhvZAiwOCPZzkRCIVsXzsNCCpGjdPujzLft82MFlwQEGssuw+hk2J2Dd4po3mwZpd+59eJjwNO91spZJXRPTN7gEG61/arCeXZUxWfQeqi/Qj/XO04jmScIsESccGKQ3No4V5nFba5foOL+MEZAznEKST0H1q5mBWZFfp3Co+CvgxCJtzILvM2C7EPKIiTSsGOrkttezK4tYZXnsigJ2RQEh+8NEQRox9z2lKI1WkjFRmEqrzAZbiuWDDWbayCxleKAk43X81SdxMQkxsTFXrnd0D0n1iBhelVg2hSY7z+wEYA/Dilb8BWA/zxTgm3z7O7B+hmrh0IOL+JlwaH+12ZbIsiIzLpOZ0mfPMp7de1XwNnWaxdyUAlv88SUmFh7vs473W8n9emzH7FC7sqcJrCujVBRhC3NHC3NFXc1bXKpPygwrWUE5zSuZCKuZXgXdNyPy6VV2FW8JIM9TsDCh30oaWGUQ1oAJK51gIGOmuhsElXmMglRGYSq7JAOqzpO1VemG2824Xv1ol3qgSd5fp8a2mmkjZjZhvLE0/W5c6r2EtKeP3z16TCOStSqtWjWtVs0pNSaFfkmI7LCsLjq6K2CAZwoIjX7I8nkWXjjs4IKIGzTZJaZ1jWF+TmcyzBlmVLOVBZXvHz6rSUuHQdammLktmNwRUpxiulfODqkgv5RlhyZ3oIkNNtH7lSYAACAASURBVHGFRVrmUDcFbL+Stzct2NNCYSUjIKV4ROM+OTWgAXbNqpBlxq2VrICT++D2zZMH1pmENYDsEHN2RGw7SNpijG4xxjboWDtE3uIQnXzKDm9yjUNaYuKNpF7TeO8cqcdMHZ4HicKh1vyHN6vePO0tyWsryAEwg3oWA2YxhP29Q6WlE8MYtcEGwRs0m4tp80Gwl2dGN3SPDM4+QxMIYLtUvyiTqqUs1tq0cntWbZOLufjRrqL8voKsNQHLJWO7ZUyPnOVTgkENL6zlhzS8kAoKKIGgAvArOV41Pzwr3ZsV703x9qa4ISXDJ5n0SakeOT08zd+Dp/dshoBBsylkLdBwNvKgldhnIw+tsYhOMdsjh3wyhk9C84goblQWMz1yhl1C3eCPL0PEJYiwyMHNMzFWBsbGGrOy8Ub6aOO7x/35qWMV+ayOBh0Ft0YjzTRWYpJutd660vr6sQSCxOYFqnWbvuBh25wQEhmcfaY3rti4OjdrHKiq6E17gxD7QyrQo+JsKUEFoZfaUOSRsz0yhlfB9CkBn4YbnBaFZsThWXF4VrQ7K9ybEezNCnd10vCMOKjhBlVAWAMElUyvlOaVM71KIDQr3ps37M6bAgatSynYgKhLVOw8eWCePLBIwWyA4/vssrxKtl/N8alBnwZ0K9kOBXNbRlsXTS7zSYsgbpkziuIL4BY4xEVofKImb7I6D2qrUPQ3Wkj9xu4GTUEy/UE0/sbplvhz9K42rdHGsm5R5h2M+R2ObZuznz/0+Tndwy4VlOYVFZdX/yKJmv1mti7HNdkdlE16tWwYwMqHG3xyRkBBDyiZATUQmOahSx31sqBeFjbI9wzSXb14Vy8K6yT+ab5fDYa00N4Mz69keeRMrwr0aQVhg3Jv2bK7AAeM04EZuUvCWWPibaR+01gXTOhbYeI2uRSHFHArIb+WH9AK/BqeT4Pi61UDTjljUzixysWvQbhlCG9ljSKssUWQJO1rYNTkcGpzhI35mq5ySW3edHW2IvUBK/H80I3zk5XlGpUegh00m4dhs7ORrQi4n6FO4MBOlXGJRyQMJb+E2ypcg7V+YouPh9mWEG18PMzG2EWTQSUtqKIFNGz/DM+vk/gMcp9RGTCrgiZFwCDx60TBuX1wtdygFgpoOF4ly6Vg+7QC/4xs1zy1t4LsLsIB82xwVumRQxts4jx5ACH0WnDdtsmhFTZpRwi4pFy/UhRUi4IqYVjN39VAu2rQL6U7BeNbXPwGj7AE4mysUZiBRRijU5g2dnUWs/Q9rzJF016g6KtRd1XKC16KXsVTH90gZOcr+XNCc4CFhNASJ5/vwp5D7XFB2Kmcs1G6unjVJW587y6hbZcz6JXg1rgYI2PARB9yyBh+FS2govo1DN8M5NOJvEaF36xC1/SalV6DxDMrcGu5Hg3k13L9GtAlZbjkTJeC7Z8SBecUu/Ds3jKytwiHLLOBaZlLytkESKv00U02DiH2GnGdK0y8g892iyC/TBBSCnfVwj0Vf1cJhmQsn5DigoibwOgSc8RKH0LoIxbasHG8X9VfzypPpeQ8ZeU+kVR/EPfXqkZblbUZvHe3wffPqCV1WoFZYt5jmcJsi49j/mxL4h12cNUzMK+3x9zd4SUOeum9fjk2oCVs0roWhlttY70uOcelpHm0NN800z/LCRr4IZM4aJKETNKAUeLVCT0zPI+a41awfCq2S0Z3SRk+JRBQQ6Fp4e6cdA+e3p2f9eql7imBU8lZ402sAPgV1piTP7HGwOpGmnUjLcuTI04uJSgDgjJ2WMUNKjhuMc0upOzwJze55FUm1kruNuBadbg280SfkdSl6K6YyHtOeHe7OeYo+eV1cUP+zGCDobNcnPeGV5TLbOnVSq0ySwgw+dlWLxuxR6TCZygVQNipmYU1RLx1eCBAx7s5Qz4NbkvQZ+4tmasrWBrt3ZawdxQ0j4bqnaL7pliBWTCk54cNwrBBFNKLfLMCrxZ0y+kuMWWLR9qACD4FOzwj2J0W+BWcgAranRX5tFyXnLkjoqwCOAu5b3akxYzr2mCObTJGDcMt0z21ZkzrCmXIDhId3HGPkBqQsVwi6hZvfINLXmbjrRP9Znzr7Ej9DKbJSO7WETpkXRWixtzu+5erLvwec+8yVPTB0Ftn7q5S1OTw66rEeLpGvSQxBwCLnzPvZSE7EXA/T3BV+nmzSLgwSQrzmW4eLqwhr9HbtA0ZrPRnMz31q2LGtpzqVk56VFSPkuZVM4PTYHiWtzsrCM3w0GXlKiAgp7kFpBX64BpzJKhkB2RMn5i2wcJtstECjMuTA5v0IWSsVdVWqm4tVTSXSuoLZfVF0x01ysZScXW+rKlotq92kdyzwRjZYuNc/PFtEL/KxK4wsfOUQQOudXakTtVfpRysmyF0TI218VtKLbhOwoekrjuXh+5d5RV8WB7tWBhuVbdX8btaZ0RqjW6Ta/KzLQFoPoBuPvyZhoMOtVTgwC65ack8M73A5QQkXI9gYldDXR9vmWnOUdXnLdOxNuHEmojslJBdskmXdMIjpwVUrLAGCGvAkJrjV7B8UpqXT9ykDSyRu7YYQy4Ofp0yKKjJGXh5h5LzxjzcuoBtm2srVlRnistSyR8elJ4/kvn9v469fiAoz6FlvaVlv4XK0oS12XN9NQvEzlXqwDodLQiyMN5jG++GiR1zmHr1QKW4p0zSV60da1Nj2ziNxTBpQNlWCRamUlOeiopTN3Hd86Od4q56AR47M2OWmrYBs48NByEk8LlOm0UKgrhEltVpg9GilG/JBD4RY1fF3CS2bhLbnZwxp4Jl5pGWeXg7n+AUklwisk9KCchpQTktpGAEZHSvmOLiEdcmuk0DNcuEdi84tkxo55YlV1w99uar/6v44pGJtGfqhlxx8WtO1mPS61u10cfSj/w68/hviy5833Inpv9ZIqMwFapIp+W/Zpd8ULeXImPNC8T2BVKHFd9qGKmbG6yeGqyS9ZYJukqEvZXq0TYlpl3QUaMdaFd3Ner62mfaapVV+dukQZgwyOxplQsFctMiZN5mwT6WJcAx+bkWPxiZ8v0sHzpc87rcZNPP6WwKiVfB3ZWzXJN9AQgXngLWpRSYT14VEHf22XXwiS4BySeeCEopAfFEUELx8kkbtAHTQM10e/E2pS/AJWxN9klqMimZT4HCd6qmQmVDoaQyjZZ2b+jRlfbb5xpvnm67G1V741zVjYtD7x/Ry7M5tQXChgJuVSb2/X1K7suZnkozptE4XGcYqp3uKVO05Sl6SsQ9pfyuMmFPlWa0QzXSIepsFHc0KLqazdj+2Z5WVW2Ji0maGhuiYkZUcwaueYmF2NEtpeAAaApwzcEIuJ+hxuXALh7iEMPrCiM8q1FtyvlhrdA+MRCQTOzaZFta9oJwYl1A2ubityHcDoSzc3EuHsHNxdkBjAPAbFD7DAPVkvosY3+1G8CG+MQgj7hK6l4Y67AMNZkGG2c7q6S12YzcZ7j3dwde3uh8HNP59Ebvm8Th9KfUyixeR5Wwo1rbXy9vK2cUJ3c+jRtNfiCszdZ0lihaC+QtebzqZEl7gbCrWNBVLuqpnhrtUg520KuKRG31U/3tZlw/gh9cJY8g5DFwcADiiWXIOsuyzrI50LRG2AtZApA5sL/z+mfYd4dd4+5vM70hti7NmI2LClFAJdhVgW4x2THF3FAzFrmkDR5pk4vbAEc3wdEdaNQBjTpB7BZjcIPSu4hvneoqUbcXb9IHvDyCj0/0conr1KEFQrcF02bBtGs7qjilqRPZz0mZT8fSHo8kJ42mP8NmvcAXfKBU5XLbqyR9jer+RkVnjai5lJTzuvH+VcyH+9ruckVbobQpl1P+TticK+4qk/ZWK/ob9Phe1UAbUFvCayifGmhZomBs44NgfTG+ooQxRhRrYci0ybY6WVYnB3GAsBNdFmHxR8D9DO9aDuwCLW4e4gZta2KT0SAXmsmYddqIb4bt1HPmRaRVDnGLR97gEdYh3AY0ugVidyCsE8JuswY2KF1LxBb9UBVMbN9GnTHBI6a4hZO28X6Y1IuQ+pbQDR0GdUOt6rZqTUfNTG+juqtW2lYlbC4Xt1UL26oFbVWijlppV72kow6sLxI0lZJy3zY9jKEUvRU25Ajrs8DKZF5DtqC1WNpdrepvNOF6ZR21wuby2aE2VU+NoLEAasgbr84DcaMalU4KOwDYC1h9HMTBhbcgZBvd6hX2RsD9TME1eyGLl2Hd4MEwYpjekkAIqRcBRxaU4ztatktI2+KRN4WkTQFpk4fbBDEbwPAWMLTF6t+gda1Nts+TWtYA7Ap7dImJWQPxGyBxiYndAEk2KkaP6zbie5fGsauk0SXciKGvU1hTxizKYpXk8GpKpC3Vyq4GdU+TqL0ObKhg1RZTy7NZVbnY9Gek3FeKrnKwOg2sSgWq06H6fHFHpaq3wTjaI2goBSpzdMMtNnKPldxpIXfOMcbmFAr5FAyZ3OD8Lhv2Q7CDD69z4Q0AsbOsLgD5PDvusEsFwOKlm72sBTfPtqaa1a3OTTtmpOtazuYMENDznYLJDe74pnDSLpqw83Fb4PA6e2ADGNoAhtdZ/RuM3kVKp3G8R0/qtoz3rdCxWyyCFd+rH2qd6WvU9qIaQFhbKq+tUNZXgYU5zJw0Vl76eOqb/seJ3Q9vDTxNHHz5cDQ7FZuXPlGWR6/OJxen4PNekQpeTQ3UcKpSRQ3ZgrpMUVOeqrNyprfJgh/mtzc3pbyZbG8Q4ofE+AEjSJ2RSzWGeZllG7QcbI7phdBd1be48BaAOFBwI3HczzKqwLT6qLYgw+oDYbvUtDKth60G3cKMfHNauCqhzRC6FjgTG3yaUzDugjB2oH8bHNqAMOvcsVXOyAqj10bp1I61aDHNMLHHOtYlrspjZb/HvUnCvXuMT32GS3tOyftAy02m5X7Af3iGffOoOSG65VZ0xZUzdbEXS84fyzj29YOvf/vqzPHqR7exee8Z1ZnU8g/smtSZwWpuTSqvJk1YnyZvyZzpLJ/radHj8aoJmpAnIjE4NK6UzRErpXNywzrX8uMe6sC/rzBzcvanHj5XaiNxXHSXKCY6p48WDhOaN2XGFZUOmZ4zzaintRLZtFCIiPlLPMYWf9zFxbqgQQd3ZIs3uikgrEOjS/QeM7FZOVCnHWqCavMb7kYXXj5ZFX95oiB1ojxbTehTkfq3NNwpQi+ttsDCwJmpWHJJhg7XSyvPgepLKm9dffjFr8/+H//bF//r/5J69cxERSa3uZDXnCfvLpkZrOJUJAPlH4RNmeK2DG1v5fRwl3Z8fFaiVBnmBeZlPrwqMizLdStCU6Q+7mf6TPnIgwJxctBlAg4ItvMsO3zLttC8LTZtiQ0bEt2GUr9mUM0gPGCFN+ng4lxcjIs/usPHbQuJW3zcCrPXQmqdHm7iNRbV3o2+/k//5dGXvxnKfLcm5SypuKFNxLsJh3as3hX9spq7u43srZu3tMIQMm0BxucmsR3Jz7NiL539P//LwyNf0muLVIPN8t4qaVepsrdM1lnELHsPVKRI2/PEndmKgRo5tlsySZnW6iWWFd7CDmDb5tscIniHa/ls879+vuMOu8YF98fgXHgHgu37y7PQDalZFj8bXUG5yzH5NNM2vVBo5TG2eCQHd8zJw+1wcZs8/LaAsMEZnJ/snMW0cBuLaxJjov/pf7/+6//a/P65hkpY06uda1ava83vWPKsm5fnpGH7on/JsK1TbE3LDOzJ8YaK/MT4vNtxg5kp06MDRvKIDt+t6KsVthYqe8qAmlRG2TtWebK4NU/SXSAZqudhevgsQDGL8OAtptVJQRwMxAla3eBnOvb6eWojUsEFIk4ItqPFl1BR6GbDPhYcYMEhBhJmILuANaw0rGslSgMPWOVN7nDxDi5+CxzbAHHbAsI2D7vM7DcQuozEPj2+dzQn+cPFU2kxUXI8Zkktd84jmxbjik4zrxLOcCgrarGZyzSDDB2NrMVj+V1t3PYWHXHMRB4zEIZ1+P7ZsU7VQJ24o1jaWUItfcOqTAWqMsQt+bLuYvFQEwfTLxZIZbplvs3DRHzM+SAD8bIRDwf5PBfxRsD9eDAIgN37w5oDAtwg/FNzQRan1LytnjJr+QIbl7YJkbaB0W1wbAMYXYdG1zhDC4w+hDm8DBI2+RSHiO2VCXb44LaA75BId6Ryu0K9IRKt8YBNAWcdYq+DLIeA6xMLt1nMDRpVP9Cv7ezQ9nXOYHr0uN6pkRZ5b7Wyt5LbmMOoTAGqM3kN+bLW4qm+atlIBxs7olDoFIYdnskHmoMAHGQjPnSNw+EUeLDrsEsFNlr3xYtO7iPohmEg7ORZ7ALLtsC8KTRv7De7bG5ZKZYbOLQVgLjJGt1kYddYmFVgZIU9uMDsX4RGN8WTDinDIaQ7+Ix1xoSDzdqVKcLq6YB6JqjWhJXyXaVsVy7ZFQmCPGhrcny6pVldV6eqrdU2Nc4MdOpH+3SjXZqBBmUfCi7UkM2sSuPU5vAbCxXtFTO99eLBLg6BqNAgcoNDYAzyjOH9JATfoaU2IhVcbJRaH+vAe6HV4w7A3RKYN4SWdYFlDYLdApNdppibYtOtdPw6c3SdgVlljKywhlfYgyuc4TU+ziGj+FQsNMtRzNikE5YJIys4zMoYdmUMu04YXRkdmh/qhfs6ZlvrZVUl3MJsbmG2orp0trXO0NM6M9BhHOuZGW7R9NdPDzco+yo59dms6gywPp/fXKzoqFZ1NoD9XSCNKZlb5BucPFOIZwzz0cwvNzqs/EwX8UakwkelghudKYU9bMTD3teL+7P8DhC2gygWO0xrALJ45FPwNMixUPGrdOwqbWSVgVlmDq8AQxtc7BZ3bIdHcArJbtG4SzDu4o+v0bCLxH7TYJumrUpRXyKpKhCU53BLMln5yZOZbyaz3kAV2eKGYnlLubqzZmawTT/aPTXYND3UOIdtUvRVchpzWLVZUFMhr6VY0l4lbK9jDvVCfCHftMo2ukBzmGsK8cxeCN0PdROI7J7+UcY/1wNAVCGgfLMR937FOA/T6mNYfXSbn2oLUmxhtsWrNKzMimVGxvgCBbM0ObxEHVqkDSyzh7b5Yx4BwS0geMVkr4TsEBA3QOw8tQ+e6JoeqYcasmnF76l5b8azX4ylPcamPhrNfDpe9JZelQ61FCiGamdGWw1j3aaxnqmBxjlMy9RQvbS7DGrK4zTkcpuLuU0l/NZKsKOBSRwTaGdA6zYd8TLhMMcSRDPErVus+TW2NRLHPawy/49vSDbi/lH1oqXjvGgBOZuXjTiFlh35tE0OiefoFIQyOj/ev0gbXGBhV7lEh5Dklk64JOMOMdkpndwSEJcAjIXSOz3WIu2t4rcW85uLBC0lwtZSUXuZqKNc2FEu66vVYpr15B6YMmgh9sxh2qaHmuYwrcqeamFrCbexEGoo5DaU8BrLoNZaWnuzkMOV6eZBxMW0BZlIEECL4DpBZBtAPe5nW6vmj/vlL98f9sHZX1rkz/4CWrfZaKaVGzK5IAUsBgRTEwR4fHCBOoLQcfPg+LqQ5FTQXUqGU0H3alj+KdCtYm1LKKtc4gJ7dIE1uszGrwLENZC0xiGtgaR1iLwOkTeg8TWQtMzGmcm9BnynAdc5M9Iqai2HGorB+mKwrhSqL+c1VkLtjfS+brVUqzSuQ7CXiQSZiJ+NuEHEzoV3QNh+MLX7Z+d8GD5GwP2ICIbgHY5lh43GyDz8uVWxUCmnTugnMDAFg1DxNrTMLcmlYAamoOA0NzTL2zOIdg2isF4YmuMFZ6DQFBSe4qFNyw2qwYCK41cCbinDI2M6RNQVNg6eGIAnBo2EXvVAM7epnF1bBNSVcOrLuI3VgpY6bncLc6hPq5pRmFBw6YifYfWzUHAd+5Mmjs+1pt1H770IuB8Bl2u2gyYn2+JlW/1cxCkz2FQymZo+oZvEI1QSPIFfZJO2xUy/lh+aEQSn+bs6wZ5BuGcU7hn5u3ru3iwPLYan5e6qwaCc5ZMyvBK6UzDpFExucgi2ySHL+JCROKgZahd21IKNFazaUlZtGdhYJWhrEHU0cbqaJvo71OopmWEZRGV3gGH1/QFcO2RxRsD9SP999A74LA8AYRff5OSb3QDsY1oDTJtbgGyo9RaNUDg1STaRCTBpDKEQljmUHTHgkoNOOduvhYIzUHiOG54Dg9OskJoVVrJDCpZfSvcIJ5388R2IuMEeW6GPWMk9xrGOmdEe1VCnsLMRaqkBGivZDRVAQxXYVAM214JNNfSWanJvi1qtlegXQZuXbvMzbN6fwN2f7TukHRfxuD/X8SDsEphcArMPRPx0a4Bq8zHgbTG8qp3SKWi0WdyohTBqIo1ZJomLrMlViLYKUTaFVLuU5lIy3Cq6QzbpFKIBMjtI2GCOrtExixP9ptE2A6Z1ZqBB01Oj6a2T97bwOxo4zTWcpmqgqQpoqmY3VDLrymnVpZTKIlJN0WRvk1atVpiWObCDjqAFx9mIi4OgWUERcH+u8z5LV/pXXtS+x/XwTR7Q4mNY/dT5AM3q5iI78hlYxgQ0YyOG0cHZMczM2IieOGqhEBAaHqGPIXTsPHt0CcQtccZWWKMbrLGFiUHTWIce06btq1N118jbKwSNhVBtLlRXwGmoYDdUcZpqOE017IZKWk3JeFkeqTSXXJY3Xp5HqsyndNXLhQKFzgZZ7GzEy7R60J2HETsaaf586318tIMiHvcjNy3X4uFaPJAFDZPRrX66LQBavVL9sgwSqPAjutFezXCfaqhvCjswhx/REUemx/q02G4ttnNqtFODaVX21St76mSd1cLmUqiugF6WQc5/P1mUQilOpZVlsKpy2bVlQH0lq7acUl6Az08fy00lFKaTizMJhWn4glRyWRazrRokEkkTbLHFDqLzfO4DcAHE8bkuy/kotZEp349Qu5+94IYsLu7+MAhAJ4fRnW0kxk2FWK4cH5nD92hGehQD3YrBLtVQt3KoSzHYoRjsVA13qoY7JL1N4o46QWslp66IUpZFLEjB5bzH5bwfL06nlGVRy7Jo5bnMqpLJ0nxMZvJAyuuRjLe4vGRSURqxMHUs9y0+//1kaSanqZLa09fS0C2YW+dZPGg+EOIEEMf+pu+f7cqcj7Ib8bgfYRcNmu4nMPDNDq7ZC8Jh0ByUmuxq1ZSajtVP9EyP9atHuhWDnbL+dnFPC7+9gd1YSasppVWX0GvKGLWl1IqCydJccnEWIT+dXJxFLsrC56UNp7/tef+s++3TtucPu9887f/wfDD5xVj2O2L+B0LeO0LeW1Lhe0pZKrsyS9RcCXT3ludWsiUWocWDFvj4A7gsqwvVu4dy5igC7s91PIDOA6MjIZ7Fvg+uD7SEOcaA1OSY0s5pWHgjrV9H7JsZ7dKOdKmHOpX97ZKuZqi5hl5VTCrKHs740PvheefrB52vH7S/SKx/cKPh4a3ae3GlN6Jyo88VXL9YcSem+fHtvrdPMGmvsRmvCbnvyQUfiHlvSflvKSUp1NIUekmKpKmC19NXmlY0wVILjA7Igu5hhm76jpZQ+ONFvG7Ofn7mH6Vo/tylfeq4R8D9eO/uJzM42YibiQTocAiAgyLD5rRWp2FNmGnDFnKXCd+uw7bNDLVOD7RP9bepuhsUXTWS9jJmZRox7+lwyp3OZ9ENd85Wx/9QGXu8LPr7kuhjZbE/1N650PzoWt+b+8PJT0bTX+KzXpHz3pHz3o3nv58sTKaXpjErMjk12fyWYl5/d0NeRWs7UajbAWE32+pi2lwsm4tt9YCwm2txgxYPYHYzzV4mfJDp5j3g8jMevUXA/Qi4P6bgIE4W4mYgARocYFt8MvO2btY4BVBgJtY6gZZVNI616zHtc8PtupHOueG2uZGWmaE6aUchpzaFWvwMl35n4GVM96PL7ffON948XX/rdMOdc+2Pr/a8ujmS+giX+YKY+5qU92ai8P1EwfuJwveU4mR6WTqrIpNdncGuz+b3ddZlFuXk1PM1a1zLvsC12vezFJxcs4NncUEWF9uIzpIA1sB+imYE3EOpn/70MYpuFXbguvZTzv0ci0sF7yzOLxuFAMwcnaf0WsldZnyHYRRlV4/pMGDbjWNthtGW6aFqWUc+ty6ZUfKclHFv9N3N4Zdxg8+u9z2N7XsRN/LhzljGI1LeqwNSKcXJ1JKUg0YrTWVWZLCrsji1mazaTF5vW1Nu8ZtnWcrZNeW8W7bgki065AsOpc0jQxxCi51vcfARL8fsZprQDOODpPiDvPg/vZaP3KWf0MERj/vRvkS1436SLlokGUQ8PNipW3a77C6rXGimYxeofbbxbguh0ziGsmsc7TTjUY5NuNY5TJ2mr1TSlsWr/cAqekHJShpPu09KuT/2/i7m/R18+kNS7rOJwnfUkhRaaSq1JIVelkorTaWXpTHK01mVmUB1Nrc+m1OfCXbUtxcUvXuaZrZurXh2l3y7y77dVc/umntv0RXWLnn4xk2u2c61uIH9sF0E3I926ud/AAB7OLAbgtGkFi68DVl2JFbHiisU8PmtCpGFhV9mDC9S+qzkbguhw4xvN+E6Dt7osU2zw3VTA+XKrnxpS6agOplT8ppV8IKW/ZScnoRPe0DITCLlPhsveEMpfk8rTaaVJtPLUhjlqcyKNFZlOlCdyanJguoz2XUZ7NbqpozMF/deLC9tuMN7rvCeJ7znD+4FAnue0N6qb1e/5hObNrmmHd4fcot/9J2f7/qIiMf9+XvPzTS7QauXhzh4pnWBeZ1vWtNv+ByBPb/HB8uEFhZhhTmyTBtYmOxFi3kR2oy4FrSNtcwO12v7q5Q9xbKOHFlrlrwpS1idAhS9ouc8m8h6TMp8RMh8RMx5Qil+d4AsrTSZUZ56AO4BtZyaLLA2g1aZMllTXPLsRcar1J0tlze45w2h1Ib8e7u+PZ9/zxHe2wruza14BMYNPuzg2zwg7AQsDq7N8xknPUbA/TlwAXQI7wdgj9DqEFvWUqbbqAAAIABJREFUhMbFqaXtNf+uJ7Tnd3tNEr6JSVhioOAuUnqt4x0wqdWIazLimvSjjTNDdeq+KllHgbA5XdSYJmvMFNWksAtfTmY8Gs94RMp8RMp+Qsp9Sit9zyhPYZSn0MtQcJkVqazKNHZVBlCNNlZVGqUsFVOUlXb77sQwIeAN+kJ7vlA4GAzt+nf3vCi+3uCeO7y34dudW/UIzFt8xLkPrh2yoRHfT0i2/odONQLuR8Dl2IIsi0dgtYtMSwp4adHpdYT3vMHdgMutF0JmNnmJvg8utXd+shMht5rwjUZcox5bPz1Yq+5FwRU0pvHrkoU1KVDZW1rOE3LqA2LaQ2JG0njO04mCF7TS98yKFGZFCqM8mVmRwq5KO2isylR2VRqjPHWiNLU99e37m7eWzfPBwK4vFPaGA/5QIBQI7/n2wv5QKBT2Bnc9e3vL3l2pdYdr2eYiTgB2cBDnZ1wuJALuR8BFVxyg25Bvig0Llg2HaxeVmKHdvbDHY5TwDUzSIm14mTawROtdoHbOU1oRcpOF2KQfbZgZqtX01ah6SiStWfy6ZG7FO2bBs/G0+8Tke8S0B6TMR5P5z6nFrxnlyazKVFZl6gG1nJoMTk0Guyrt4I/08jRCYUrFk4eVH1LD7oDL63fvhty7fm/YHwiGd/17Yb9/NxzwBYLu4J59d8+w7RPA22jiGOprneDnWy4kAu5HwKVbvByrDzKua+fXN31B796eO7Qb3t3bC/hMMqFwpGthH9xleu8SrXOB2jpPaUbIzUZcw+xI3dRAraavXNaRI6hP4Va8Y+Q/G0+/T059QEpPGs9+Qi18SS99+5OXRUvXVKcdgHvALqM8ebIkGZP9vuBeInMIE/KFXf6Qczfk3PO79vze/6+9N2ty49rSxfR64j77zU8OP9nvfrnhX+DH6wg7wmH7dnQfd98+rW4d6WggqVnU0cCpOIiSqJmURImkSFGcySoUgJqLRRaLrBFDJmYUxpwz97wda28AVSyyOA+lc8jIQGQBCRDI/HLtNXzrW5xTIgQlkkSM0YhLV8hSyCaLbjzTTub9eM5/Btw7Xd37ck02wsEJkLjrbWubCAYMT1V6A9X0GwyYUTIXjhvtkoNCLhCliBCMsSAkfePaVx++kz31fenMwcr5byvnv6ie/6xybn/x1CfG8b2pn3cv/Ng3C1mFd8b3bx7a9crAh/9x5u1/Of3mv5x5+09n33v+wgd/7t/28sD2TQM7tmgTO7Br00DfawO7Nw3s3ty/a9OFba8c2/ryF5teeu9f/7U0t0gxDwkHky95IDjinFIhGBM4EowyDhkGmwijFU3l2hNmeyzbHsm0hww3aXoJ0F73YlkvDuI30SUjvGREoIWTRwM5EPJR2+0oO6DK78Zz7iBsHY85ZkKpGbanl+b/e7K4KmpRiS3oNEyaTtK0korVqtO0nQJpIRwsRDBPtBDFClEyHw2l2gu1yKESM84IEgwzgjhjjWZ721uvJ77YmT35denc18Wzn9Uvfl49u698ak/ueF/m552pH3ct/rB99tD7V796a3z/5sSuv1z68N8vfvAfFz544eKHfx7Y9pf4jlcHt78xCCnbLbFdmwZ2v9bf98rA3tcu9b16ceer57a9/P3bf/nr83868OFHYdsRTGImI5ULQ1wSJhkVgnJBKaeMMUGZjIjwkLAQW3bxUsm+vFQdN9pD6VY81Upm3dECGsz6MRMninSwwC4a5IIR9YOgREdWosOTBL4vbKqX2E6YVjynGjNBaMLtMiX8m5kST9q0/d0Bt4tRPd5Da93ddNLjYIH8AROILPF8kEi3xzONss8CLhFhjGLBiGAUE4IZP/bDwQOv/en6kc9yZ742f9tfOf9Z5cwnpd/25H7ZlT2yM/VT39Lh7XPf/3Xm23enDrw19snmZN/Lyb5XY9tf7v/4pcEdrwz1bU72vZ3oezux+43B3VsGd2+K79mc2Pd6rA9c3nMfvvzdGy+98f/98crAoMCUUwjCbgIu08BlK8Cl0kfSwcKj0mOyhWTeZUsNNF1wxzKt5FJzFJhufjzjxTJ+3ESDuehWqzmQA2rRgLapiokGsiOwA+eku3UOeFpL6N8+cMGOahPSXddiuQAGewAjG+jhsJmg7awVveOml8j5SdUbM5hpXZw2l2qerUwdYYJRwhnlnAeYRowvzd7oe+lfLnzy/o1jnxqnDxRO7y+f3lc6CcDNHNmV+qlv8ccOcK9++c7Ep6+P7H1teM+mZN+m+M5X1fZafNdbg31vgWu7a/Pgrtfiuzcld2+J7Xj14ocvn3n3xa83vfDRSy9ZpbIkHCMSUR5xMLodi8sEp5xTzhi4DJRJzCHL6yrg+kw6BLK8DiR6RSVg6SaeMpoT2daEYY8Z9qjhDBmOWnk6epV6zemKS2hVtUBR17VaSrAK02vP6hNG8N8XcGNdpGqhO60aph479f2E6SVNZ9iwhpXo3Vi2ftWotSMWCcAEA7cSHFzKRUCES7jn2Ef2fPzVmy8OfvFx6rcvcqc+L57eXzy5N/dLHwD3576ln3Yu/PDhjYNbr3393uXP3xzZ+1pi1yvxna8O7ngF7O62ly9t39K/A9II8V2bE7s2JXdtGtq1ZfDj1y68/8rpt1787KXnD+3eywMkMdwyVABk9Ya5pIBXrjZBmSC8A1wPC18ld30Gjm8I3oUIhQwl4LgRMbPp3cg3Ly9VxlKV0WxjxGgOG+0hEAnuyq12tADRpTy6BPR50AVUTgXc7eBRdN2JJ4zX3n/39wVcbV/VNQD6X38Oq8eOapga++GM55zLZnum6GRaeDlkDmFQblApMEopIZB7gioAh7R/GJGr/ef3bXnx+K53pg7vWTz2Sf63/YVf95q/9GWO9i0d6Vs8vH32ELgKV754W7kKrwzu+Mulj17Ubm7/tpeh6AAF3s3Jvi0ju18f2bVlZOcb8W2vX/rrpjPvvPLpSy/ETpziiHHCKGGYcLwCXACrBi4Fcyv0SyGVARGBxisFH5hxeETKGAdURGr1cBCvOdFSpX3FrF02G+NGYzTbHM5aQ4aT6LSyBVoR8FIOX4Ke+I43HNMptmfA7d1Dj2unGwvrz4/nw3ghHMyHYH2NYMBwYyDsDHn7UbN9pehkbVIJuM2kLwCasCiv2DbI9q9AhEvMRNisH+r7+Kv3Xrv02QdXDu5Y/GlX5uiu7LFdmWO7U8d2L/28c/6HD7SPO7pvU3znS7HtL1344IULH7zQ//FL/dv+cnHHpoFdbyT3vDm6982JvW+N9705vPPNxPY3L334+ql3N33z9hu5+RSD1BdXhl5gzjEXvY0oyCpzq4DLoDgSqrIwUgYYvjGD2E19c07V9yfqR2EuQwGORA0J00JzFfdq3ho3WiPZ1lDGSoIXAQmWWC4azIcDoHq9EgxoxlwnnF31/OO6iLf8F3/7Fnd1c0s3MoN4OZlzgYGQs4aM+niudbXsZG1cw9wTcDmxBCuLmVTIALCu3uClLqZZFKanJr98/41Te9+Pf7r12sGP53/Ylj6yM32sD4B7dOfi4Y9uHNx69ct3xvdvSfa9ktgFTkJs+8vgMOx8bWD36/E9b4188vb4J29P7n1reOfr4/u2Xvxoy8Cu9068v+XUgc+8tkMizojAmGICMRrmbA18ezhGTESURZQjZYAxFwqy6z2A/Q4lbD6XLpMtLHI2STfRbNWfyrVHM/VhQyHYcBJZN2F4SoIEEogdmvIteHoG3JWb+yHPhfLJIFEwCKr57mjBG8lZQ5nmcKY+bjavFluLDacS0jaTnjKxEPowSaikVHImVdDTAe4q8wZmWFtizkRk22e//+b47r9e3PPO6GfvXf1y6/z3Hy8e3bkERrcv9fM2MLrfbL38+Zuj+zYN7X4tsetVmAa1e3Oib/PgnjeTn7wz9um7E/vfGd/79ujut8c//bC/792BT7cd3/FuZnKCU0GQJEQggC2mnJD1sQsFYQAuQ0yDG0xs1w/WOzeBGFYM5fZAsoJJ7WAEQjpU1gJatNG1gjVhNEczjRGjNZxtDWVhXApkhQGyQPh8yKvzwG//G7e4aiyokpzPARlcBV7tMaMxlWvOLTuGFVVDYjMeSBFwEYC5EoxLRiUjklMpqAZux9ziLlgVGjQCOGNSYJq7Pn1iz0dnd70d3/3G2P63rn699caPHy0c7VPA3T7/wwfXv31fublbFHBfG9q9eXjPFgDu3jeH9783eeD9qc+3Tu5/b/yTrUP7/5r4fNv5z7df+GYvatYwUncRMMIIF4xyBMZXgN1FAjzXzibAf7gZuEzZZkEYhHG9bRVyOWEC7lIuiYo+EZNhz1oLiYS0CC/7NN2MZqv+eLYxnG4OZ8EJjhvhIMxbBc7nA4PvYd74NwVccMhWGgbBZqtnIhVPgLkdNtqT+fZCzS/5xGbS49JnLOAEcRpSiikFR5BwRrggQm86x6R9gx5wGePKfBHKGGaCEyECf+yXwye3vTXQ92Zyzxvjn701/d3780d2po71LSmLe/27DnCH97w2vGfzyN7XR/a+nty9Jbn/7bED709/8/HMtx9f+/KjqQMfTn61Y+zQJ+e/3j0TPyVQiDB4LAz8bPhHOVFGFwzq7YDLIkoiSgijVP0O7fD0vr/ORfRATKggFPJoXPQ2wTl4xVSdjYhDPthhsk1kwaXXiu4oBHAuCPSCILaeFdzBbi8lrE77462r/e6Bm1AFMBDchNx4AB1XBRwrYGUM/EQuGDb9oaw9aljTJS/TxrWIuVQAEVuFVpgxlZgVBAJ3FbtQyIkyJrjaKJirlY1QsH9glSGnKxAVPge3UlBWW1g4s3/v2R0fDO55f/iTdy9/uXXup+2pY7vSR3ct/rjt+jfvXTnw5uSnW0YhlfvayL43Rj99a+TTt8cPbJ369qOZH3feOLzzxsEds1/tmPv2k2uHv0kc+76QnaVQzJUREhjgpUGmbSd8JaI3LgjvGFTCVv0QZWXhHrzZ4vZQu3qHqeSD8osEBHC6GMdUvUP5EpAh5sJBzGwEk9nmUNZJ5qJBE8VyUSyHYrlwMB/Fi7ibtwlBIvtxds//DQDXTpgtUDlW/YyXclF/HiWLJJkPElknmW5PGO2ZopttkxoSgYTAS4XbkEjS4fbq67fO/mrgAno0fAmFEN5nHAuovjIvWowPn9m379K+nUOfb5v6Ztvs4Z1LR3enju5ePLxj5putVw+8eeXzLeOfvDb6yeaRT94Y+fTtkc/evfL1BzM/7Jg7vm/+xL7Fn/akDu3JHfl24eiPiyMJx21FADshJNwq4Hb3biHYB0upthU3YJ3v/4AHAHGyE4N2ThfGNKSiHvHpojeUsYeg8BbEcyieh8xDLB/2g+2A7VI+vJSHgsXD+AN3eO/vHriK/OEoZRddhISZdYksVBCultylJloOeZMI8AqEdIkIKaSNdK6Aw9q7NmNwx2sPAOJCW1yI3giVSIVxocdowMJqe+j4idh334we+vzyoX1Xvts199Oe1LF9iz/33Tj44fRX705/+fbUgbcuH3hn/PN3xw9snfjyg5lD2xeO7c2ePWCcO2D8+ln26OeVM0fnTxxpZVOEkRBMqeQKtQhr/EGlTDkMmHIM+6v810e7fwtwCQdfBWoZyyGfXY6Gs3Y8A2qnyVyQyAWxDj/J78/DUAIlc/a4PODfPXBVEdLTpchB009Ay2t7uuQu1YPlgAFeKZSOkAo1uvajE6wop/FuwAWUgL+oMAFIxQQgyyDhADEccqXflvVKlDMagYux65vT01fPnpw+fnj2+KHUye+yJ7/IHP90/nDfjUPbZg9+NHvwo7nvt88c2n7t0I4bh/ekftlvnv6iPPBtJXawdP678rkfGvGzhcF+2m5Rylousm3ie4IQ+O8QUt+EY8jVCh82Th4tWFd/2s3AZQK8KsIgXyEiKVtYpltosuANZ61hwxk2vYShKQ1gQfrzvq603cFqPsxLv2/gxkwfFiYQMAwGVdJgomCnWqiBhKc9M/BcBYQztOvC3p994l3b1gEuVXgFE4il53Krwa2iaBZEOY8zptNwiB8xHOKgXsuOjsyd+c24cDx37ofc6e/Sxz9fOrJ36ec9qZ/3GMc/TR/7NHX8c+P0N9VLh2qD3zeTh5tDP9cTR5rDv9XHBvzMkghx4JPZherkePHKZGVxvtlqUoLhngFsAXZVqQG6eFa5ELfZf0A/QdeQu7c65IMlJZxEglMhOGY8YsJlMu/x6YIzlmmOGu1hqLqBur/WNesHCuUzi9vNdWtydMxQ3NCcD+UcmK3nJbLtKyUv70aukFhIRVVlAs415hRoXbDKqWRAp3oEcQxsq23MLfucQNqAQuZAubba0IaBrJSj1GIrPWstL/FqRpbyotyQdR8yFW5EcYBp2y1NTacvni70/1K4cMQ89V32xBfGiQO5k1+WznxbPPNt6dz3ywNHrOFfnNHj3tgJd+xXa/x0c7I/PxYPa8sCi9qyPz5aGLxQPHV88dSJufHhUmrRti2OFXwR5sCypBwixa4HrJIPEhPwwruAvvMPvNOr2uKqXIr2cYlkWFDECGKMUgZlDk/IooNnS/Z4tj5mtIZNB+yu6cVyYHF7eYaHMa63fe/vz+L2WP1xGIUQJCAIs0ZMa7GNl5FwKZCnAGiMSkokxXqD1JBa5nrugc4Q6SLCLXhduZw6r6QBAYE8GFqxXGGZlD9/w1q67pUXRCklcgYv1kQTQRUDKIUe4RFvG2VjKFGMnynGThbO/2T+drBw6rvy2UPLF35Yvni4PnC0lTzpjJ30YdTU6fDyOe/qQGtmuL40R1wfhyKz1E70Fy6dXr7wW2Xg7PJwrD6arF4eq6YWbM+B1geEVEZXWVkdL8I3pDJCHPyZRxG69c6SqmLAnSIYEDvV+aRE1S8CIZuRWKi4E+nlkWxrGFr5/RjY3cc4avi5ig2jQH9fm8JrqBDsJbPtqXw700a2qryHKm3EFb1aUKo3nT3oQVbDtHdJ7oBaeImDF6lTYARL2+J5M1qa99MLODVP569F6evEXGSZNDZKuO4Jh0qPCMtFGDHsRM2F+crIQClxrnDphHH6h9L5H6sXDtcHjtQHjrUGT1jDp72Js8HEWXz5Ir066M0MN+euYNviRJYL4eXR8sXfchdO1mJnreF+byzujcbbY8nG2FBt9ppdLRIcQtymbyr9qF3wm4Hbcejv8jPXWXn0WeplfzV89ZlU+5BrQwyWuEbEF6ruSKo2YlgJwx3IurF8pBbDx4Ku54qt31kHcw+1MQhm/emSU3aRD9QngaCixTWRRLNUe9kiSGeqjGaviHCPF7IDCyYxlu0WL+ZQZjFamsWLN9jidTE/w27MhOkUNUxiFsJyLWq5xAlo0/I9H1Mswmp1eWK4ED9fGPjNPPtz5dLR5YtH6v3HGrHjzcRJe+SMO3E+unxRXI3zayPuzIRjpjmhbYdNTdWGB0rxM5XB882RmKtQaw/HmuPJ1rXL3vSkMz1pZ5eQ1WaEQA8c/FIVMmIsw1AgVW/rOgwrC8g9/uo1h5EO8wGS390zCV4WY0JwwVXtzWeyRcRM0RnNtOJpK2EG/VAMeiyoBWHnVLnxuzO30KRgeIl8eK3NawSqlJhSIQXQqnEEMQRkASA/jxSFTzOve8ajmw67x8sJJg1jabVZIR+mF4PMIsksyMXrcnFGLsyJmXm0mCGFEluusWYDORbyfWy7kROQAHPmuLWp8dTFU4WB0/mLxyv9vyz3H2vGTjTjv7aHTrtj552Ji/jKoLg6JK5N0OwidxzXJ/NZa2i4OhZvT8SssURzYtgaS7ZGBuuj8frkiDU1Zs1M+XPX0NxMaGTsdjskREDspBJzCAFwowh0bh4FcDtZl97Z61SYdX4X1iMihRAqO+5zWfL5tXKQzDoJIN+FA1BgeyzYfe5apvSYPvpRfWwcpLt6v99LAFfGHjLtq8uoRKXLBKaUUExJxAkS4NQCcKFUq4AbdlsGNM2vdwHWGJX1/4T8l+vyciky0kF6ETyE1JzU29KiXMySJSMsV6nnSRyJKGAYCaQaGz1MaBTUZ6fnLp42Bs7m+09VB07VB0+3EmetoXPO2CV3MmZdSfozY/6VcTI3J1u2QDxrWsOThZGx5tR4cGXMmxhtjo80RpK1keTyxGjzyoR97Yp/fTq8cS1amMXz800j12zblOiONCxDLL0QqOdI55jX8QHW/7033c9QZO4yOXtU4B52KZcQtRECXGEmIyFtLnM+nyi6ccMGX07VIHQX0KPCg/6c50ZmzUf7iY/20+JmMGSi4RwehHvXGzSd4VxzzKynW6HNgC8bKadWndwVGlT3qnQ4XJrJBY/3fxUxk34kmhYrlkg2Q5YW6dICX1oQmZQ0sjKf55UKWV5GzWYn26qrEoSCUgdmlDPEvFYzu3j5txPpi+cbI8P22IgzPuJPjfvXJq2r45WZqdT4qHl1BjU9Hkq7xmamGxOTjSsz4eTV4Mp0eOWKNzFujY+1L086V696s7NobhbNz+PFRZpO84yJUoabK4W2LxWFXHpYuogHTCABRdpeNbh7Tm7C5f0+iZnQm3IYJFU9m+pDoIcIc+4z4UqZdfCIUUuYzcGCfykfQE4XNKi7DZjQcgyavros/2CAeS52Nf1g73wy74qbQcJAcTNM5MNEwU/m7BGjPl/3moSHokMsvN+zf1/HYyYDJNo2r1RYzqSZNEsv8WyG50xRKsnlZWlbwrGF54kwlAh1YnmVNoZVAOI6ipHrfrd738cvvvL56+/+sHXbkY/6fv647/uPdn770fbdW9/b9s472bkUDwXxRHbRmb7Smp2Nrs+Sq9ejG/Ps+vXoxg00N4eXllg6zdNplsnwrMENU5g5YRZpthAaxaja4i6SAZV2xG3EfCZCKZB41MAlDAEtmGECmTjt+3YbMSDXgLhwqLC5TLWDkWw9nnMUaiGzq4GrxE8fBXAvTaWeDAQf8H+BlAoeMPx4PogDqbl5vebXEI8U0Ruyql1+yX3B8d4PVsCVtitqdV4q8ZzJDIPkcrRUZrW6aLak58ogAMgiJKNoBbiYUkSJRwiwJTGLXYj/0//xj3/8L//1+f/zn1/8v59/4f95/t//3+df+McXXvy3//j5h59oxGgkm3V0Y6Y9OxukUnxhScwu8MUlvrREMhlmmCKXl/mCzBdFsSRLZdiKZVEo02KVlmu00iBtT/WmB8zDDP5T8eiBizANIxwhguCmXAGuXvGgZqG63AIOgdr1ojWUbanpQNDUvqplNVC29uEs7oWppQeE1ONxutd8mVg+HMijS1BlcGPp+mS+XYmgSYEICD44cL0fau27K4IxBa/R8WWzzZdrvFyh5QqpLtN6k7RtZrvC92QYQvRGiHoEAkOvVsd8zluYB1xWa87Wd3b84//1/J/+4eXn/2nT8//0+p/++Pqf/nnLpk3vGLlCiGSE5FLKWUpFc/Ph/DxeSstURqaz3MzTfJEVy7xUgW25IetN2WjJWlMu13llmdaavGGJRpu1HGb5zI1YxCQwHoXA4hGfnB5w11hcfRpBnIRwJqQX8ZDJcgtfNlqgzQrzspWeSIdzoyEbKm/hAUO35zYlK2uwsqH+HACSUTSQh3nhQ+laqgmac4EqCwkuBZGMPOJrswbKGrheKNo2a7Roo0VbFmvbxPaIF9IAQR1Lo1ZH8QhzhGEZhQVUCI8ylwsXJBHk5OTsv/7zpuf/2xsv/cdfN7+6e9Ore/784seJ8RkXcw/LSgPPLbmLGZzKsFSKp9PCMGSuIEpVWl6m1TprtEXTkpYLd5ETSMuTTYs1Ld6yRcvhLYe1HGr5JCCcSEmkRIJjcTcmxn3e9hq42tzCiQJ2KBDYdfAAmRwsgIZPoezj+Xy+aKkW4lZXeGW1rQWp9wcG23P/Fq8+8JufwBvV5IWwP+cNZpvXSk4Tcd1Xo9sTALid4OxxwVcBV3ghtz1qu9T2qONTLyQBBr42hoi7V6OCHVUC4NoRhDwaZz5GRIgwIr6Ld3z82R//4c8vPP/Oyy9++Mpftu/bd7TlE5/LmivShShlkrTB0ga4sGZOFIqyXBXLDVpv0abNLVfYPuh9+Eh6kXRCYfvcDYQXSDeQbijckAWIQTmggyeOHzV3DBMWIRIhou9MwC4Uw9VdCr9dIMQphs4RuDRItgI+ZTSGl5ZHTCeRdRL5aBAkLDochofptdzowAVueB7FoHmhZbZRALpDUoCjANua1po1xvKR/ImZDIkIEPMj6kfMRyzANCQ0ogQxgiFb1OPFdmpUmPSAK4TkCAegT4ex5HL68vWXX3zzlZfefWPz9tc375yYWAiZbIcyv0xTeZQtcLMojLzIF0SxLCrLst4STZu2XW77woukr9RwQyIDIj3EPMQDLBAGeWdEJPT0UPAygYPBudoeMenxFuBCwQeAq5qaIiIiBIldbVY4hn7jpYozkVoeN+xhwxs0YJz3gGLxPuSIio0PXD+WjxKme6XgthFABHQv9MUBW/tQ9cx7QTakJxURK6JCtc72WsMh+6Ms7lpjD7kwpYEAn08xwzrBDL1Bvht8+slX/+1f/vIP//X5nTu+bDTDAMlqk2cLYTaPcyWRL8lCWZSrcrkhG23ZcoQTCDcEK9trOgdhBGgOA2ojUpzgHrFd9eGo7wNsTLXdpzNw53NyG+AC3YYDHYdJH/EAgVMEHGJoggIyQytgiyV7PNVSwA0BuNDzE3Yb3B/QW9jowIXuJcMfyfmpBgmZ5NDUxzT9iTHorsaPOatAlA+H4P/qGXpt7vWKLLUGks7S9646RNwqSmOYSi4UiQsKpAjLq9cW//jPL/37n9+8Pp8PkGxZslyh+SIullihxItlXlnmtaZo2cqdDZShRWBiNV57yX/9JwZ+MIREauv41h3IPgHgQo1dNepxuK/siHmEB0BdEBRwizBmRMiGzy5n28m0k8zhmEm6wIUuwAd2czc6cOGHZd0rpbABKkQauARCAEiRgjISetzAhe5Zjphu+O4JGuhnJWJdAAAb/0lEQVSqvUokK/GuFax0LZxydgWFbyoI0LUA9wGVHuZbt+///LtfrJC1PFat0mqJVEq0WuaVMq9WRb0p2450Q+kiqCYEeMXWgnq+Mre9R/ANNNsYklPAf1v5Jo8FuLzj4zJNZKIgsMNAGyqgoh1Sh3JowpMC+pChT55BgozLpToeTjsJE8VMEMpWFteDVMODxmdPH7jQl9sVnIO+XDXuWe/EzCBpOuNm3bQjR1VuCci8ac4XCGsq3szalbpn9h7NDhSfgIS+atNEXhWTdW6bLrHn5kYgWLipIEQxf5TTqZAn5lKlbKFh+7JQjsoVVi7TcpmVK3y5Lhot2XKkHQJkoXeDKu5VpylSNZFDabdbvureJN1fuvpr9Pbvcn56YZaiE605GGrncCcoPx6qylQoLx8KDQhKZYyodU/dk6LtI49wUBGGux2cJCZ4gGjARDXkV/NuMuPE1eWGjpW8q2YM/j5dBSWhHK7MlMt5gwborqkVxIuZwZDRnC1XWhh5AtQPIgFLtirVKCa+6sjtXrY1J32D/KlbxKBtFlZPBvpfCEnXFY0ar1Z4uSqKVV6sskqd1y3Z8gC1LpYeAeBGKtJ6rD9wNXDXYhcWE3hdAxfcfSKdkPsYWndCwULBXQICe6CkRoTlowBzrBn6egXgLCDEo9yicqkeJpdqQ4YTVy0S/Xm3H+Zj/j6BOwhTnjvCwnrVAMgaLsA378dMdzTXzFmWy1kgoYYZKuWsHnD57wC4qtsbVm2o5qsOeGgga7dYuYhqNV6piXKdVZq8bsu2Lx0EeA2UqIwPXsFdezQe9v68G3DVLacsLiRYsHQCBVwhA8E9xtohdTHcYD7mCrhM53RVXY1jRjHnHmGukAWHDi1Whw0rYUIhTQHXfWDe49N3FXrA1fMQ40CHc+KGmwQWmDNdcZoIA2Ql3OURLLhd3QMKRrcrBfCw1+9xWjWd+ug8EiJ9TzTqdLlC63VRb/FGm7dc4QSd1AGEX8CP0e4slFUf53cDF1l/vm4Buvn/6i4XXeAGWNgBDYiIhAQ+DWFWxALV3uch1nLDAOYBwRfWwEUghM09QgMhG0hMGa3RbDtpgLK5HgD/u/dxNXxjuSCeD2G4XM4bMqxh08rYxBMCSQmVd6lGfCn+ckez43cA3JvLEwSIDe02rddosy6aEIdxy+OuytGGwC0GvCrsigioZY84EXszLjsIWx+4ohPqdYGrzCoNMADXo9JGrOWTQOuWhmQtcBVFLmI0UIwoG7yFYCzbHDagAvy7By7EYV295W6Xkjuch0mOk3mriuAcYSHA1kIqTBdpVozurVdigz2zAlzoBouEbTOrTRt10mxwx5ZeKKCOoAQfdGo2YhxCH8HUtInHC1ydkbgjcHWQBylzYHgi3vawj0DhxiOy6ZFlK/DUZFY7wC03DElnidCfjBkLCY4oUBc8KsseupypjxowemMw7/XnH7z75um7Coo0pDrxtQq24cdz3lDOHsnW5+uBDUx7HcWvrJja3OpHvSr1iHYbDLUrylxKFQHMrecBocy2mG1x34dwp1vg0CqLWv5W69UxAo1IKz/8kexrl0A1Bneqtff4saBJSkTdCn3EXSybLi/Wg2Ur1BbXDnDD9qEgz0A4UH8mZkzNKWIR3JmyjcQ1szmWbY3k3XjBH8g/YGQGrTtPnavQnTvg9+cipXwdxnP+kNG+nG/lXBwIdSJWuQerUasd3G6lqpt+f9RX+h6v620P09GYblzDWAaBcF3uecLzeBhqYoPQd90Tu/ceBrgRFXUrCAmv2yxb8Iu1qOlR6DFh0gmJ5aM1wNWXBmGKsEAE0tipsjU0Xx7J2aD1lu81ttw3gjcOcEGv7lIO9+cjAG62eb3qNAhHAuTleDcOuxW1G93iqoIoCCcqCZwoEq5LPY+GIeTFGF9VPtCZJ+VNriLuPGJzCwkZ1Rh8zxZ3pagOFpeKWssPsCjX8ULGrra4HYFsv0+EExJXjRpebXE7NgVTgjhRspMVKxyeLw8bbdCCzz94h/nTBy6IrUJirwvcHIqb/nCmudTwYWoudECubL9D4EJ5nzCkfD4gQAYhC0IK1EemWyTWOAMrPnEXvo8Yuw8BXBEQXmsHti/Mcpg2w6YLnq5HpB1Sy0ee4qatA1xKMMiUuFjM5K2RbCtmuLFC9DvOKmh5+wHQSAOLe8mMBg13ONs022EgZQDh2Apwdf6rB1+9Om9sVwGAi2mkxRk0FjF0c3ImiBoA1Qu/boWsfmYDABeykJCRDQhv2KjWZkumaxRw04Gss4NEy0NtL/KxIp121Hzha2MqEOHAWMCUYh4hHlKYfTmSacYhVR+pCZUP4jA8fYsbM2HYWMdPyKEBwx/NexPZRjNkkH7vZm3Xy9fqOKDnJvaykj2PU4e3vcfe809qR6dCe+hchULFT1n/azxG1Or/FG54kFHqbJj1mLWdpA0YiI5UGQH6pKAhE8ttUqrTuYybqzIoTRNpR6LpEssnIQzfBOqeZu0RzpEi34RArqeEgmZ2wIRFxfWiPZJqDWVB7aY/B0PmQJBUz7JUK/BdLfHTB65yEiIFXNKfQzHDH81507m2haB42ItP17vAGx64q5C6AaJG7Sf0gAvS+0Ahgg3GS3Qo4V3g6l4G6HQgWERI4pDLaovmqmQ24xbq3EbSiWTLF22PuaEIyO2BG2AewfgKEjESMBhHXHDIRLo5DrKkuuDflQ65qTXtThHbRgCuUlyEqWNkwERxMxg17fll3yHAvF0Pr73nnwG3dyruZechgIuQgBnt1RbLFtFsxi23RDsE1DZcZgciwNJDYo3FVWxmqYDLoHuUwdwKjwuHy5m8M5JqxqHm30WtGjCzqqdywwNXGV3wFgZMlMyFI0bbaGOPSSokpbdbZFeZrmfAvRe89o55UOBSLJCqicjltsgU0FzWq1qy5oi6w5qq8hdg6UZ8NXBBaQFo+ADcADiOUP5FUtoE2l2NFhpbquleNADrGn7j3Uzv07e4enaDdnNjuXAoHw5nWiWfBmqYIyGamrTugvsMuD1Q3svOAwFXUs6wIKptWNYtmSngBdOvWrLUJDWL2BGQMJ2Q2wFdA1yiCGUd4DIgQ8J0IyFtIiwqF6veCLQBw2j2bjofOK66q0dH7WsB3cX3hgDuYGckNMweShjuZN5ZjqDSC9n7u1ncDp+jR6buUkbu5Sr+PR8DkRmMQ7vJx9UnpJe00f26oGINpFuItNxI2oFM56NUISq3RLGBmx6HjBiStu6MJxJ3pHkFsMghqyACxH0YHsFCLkCphMNMA6DdRHTCbA1lW0Mm0Kq6HFdI7sIo8M5g4ds7DBsDuGp4bGdIbMa+VgnrGISoiOoMuTO8eumC3s6dj3/2au9WxwSAi3hnph8MrVQ+2G2BSwQMAW65Grg4XaCFOq+53I6APWwH3PKojzs9cJ2sggYuFn7EPEQDBVwYgKyGAQITksr5ZW80Ux/KtoDrCPryMK5nAIbS+UkYVbtui8TTBy6sETmlFqHmFSayzlwdtRQ3GUSvlfL1HdDWw2tv5w4HP3tJnwF9ru4OXJUOY5rMLmRIQMyhVBMLGZQu0HydW0ihNpItl7VdAK52FTqSKDcD16cgjAJyb6r7CCseXNkjU7lGIlVL5mBGnR7TroAL0xQ3MHA7qTs9bR4WiCHTTtvUEUA90QOU1/QhrgFfD6+9nTUHPPvz1jNw/8DlVAJduOXI6wvuletWukCXbelCJUy2A9F0SM/iIpjeCn3O0ACnChA+oh5iMGtFD52FFiBJqcBU2lQs1tzhTG3IdGJQPY1A/0VP9ICJEhvW4irg9ryZuOkN5xzT576EsriSXwSze+up7z3Tw2tvp/fSs531zsB9AVfpT3ImpRfKXBGNTlavXLczRdrwpY2h0ajhsqZDdWdEgHgQ0SAEfbEOcDG0nXmYeWw1cAVEL5Q7VJR8ejnfjmfag/mwP48v5VEXuLYahbIxfVwArjOo/JuBXBQ3/YmCXwlhkh5ICXVaFDu0Rj1rZO2jkl4jFISPENzldzz4llfXu7R/28/3bnKIuhhHlCHKbuPj6soZBf4alaCXMzPbjA8VZpeQUeENX7Yi2fR5w6Utj7qR8In0QuoF2A9xCMAFdZIIc08B16cCXAXtJyiVMYSZHRGLitmqm0jVk7kgBul8UAxRyQR3cCNb3MGcFTOdS2bYnyeJHLq+jJsY/Hef8IAC8wjBoOSVyuQt+9D2jZhwQ+yGOFLz93rqzaBFrOSde4+rX7pfWf2NgGad/ru1sv3A3+0uTA8iGBcRpkRIJxBXZmrJ0fLsEi43Zd2VrUg0fNoKeTvkDoKLFRChk18h4fpaBBiIYz7mvZZ6rWbiRdQOkOMjn/CihS8bjeGsE4daGpRRlbMbduL1bgpsdWrsaQdnOS+eswdMR31Xkszh+Tptd4SGgDZ/j8CNqHACZPtRgNkaaPYgq3fWvHovxbkHxsTjeOOTBi5U3QUiMKrADeWNhfbEVGMxS0tNuezIZiDakbCQtCIALrR5EmCQadTCCefSx8KNuBY0QSoy8zE0rrU93HajIAKGg0XEwrKXXGokYQqY5q7o9MK6/JsNAlx7II/7TTycj1Jt7hCJqAiJCCFjAsJHt1jZ1QYYRpzCwK2IOAHyEVkDzWfAvfP9c2eLq7hN0KxLOCjtpbLetRtuOsfLTVmxeN2HxAJ4ukho4IYUuiR6wI0YpHjdUPgIlE2gLBwJy6MtB7ddYgc0wiCKGgJ7AY+k68PQvA5FYFWQ0nMXN6yPm3f6TTtWQP1GOJqP8g73qESw0PAIBpreHbgamhGFumKA6TPg3hmpa169G3A5iNVwGPEQIJkrRXNLoVEU5ZYCrsfAT4hEz+JCs6eSWtOikREFO+0EoIBm+6LtghZq0yYth9o+oBkRYEKGQrYwTOwZMaAHOG6CpMadJ6puAIubd/tNZ7CI+7PBeD4s+RzkWyDS4tBKCub2Lha3K6wJ7mxItKBYR9jrmY+7Bqa3/nlX4CrRfIYY0GiKVbSYwbmyqLRlxeY1j9U9onxcpn1ccGRXA5cAcG1ftl3etGm9jZWOL2u73AnAhIPkGYepxC4Tqbo/lqkr4QVHC25sbB+34PXn3Fgh7M+4VyuogfU8csgPBBwmjELXq9Kcg/qkqlLe7DmINc7Amj+VyiJgGkbfKkMOfVEdndInMUXiVqw83Wc0UnVioVdF6+UZ1nw3mMXHwV+AwdNUVuokZZB0jhcbsuaJZRc3fGoh0QqoiyE4Uxa3ExBjGC0D2V8lQy0sDzbbBxxr1AYY2H8hZuD7Cln2yFWzPm62hgw7lnViuY0dnA0W/P68O5gPB7PujWXUxiBQxeiDALd3r2sb3HUhOsiOqAgwC9Xa9Ay4Wgv/noCrCE4auMtNmjZJpsAhOHP5souaAVPAZR6BSFq7CvrMa+CCBnUgLA/kI2wfhH5tHzwHLwKXV5EZQHiASChGLC3bo5nloWwrbrr9nSnNG9XHjeW9gTzMLE4Y7lKTOERSIjgFqbh7t7jdDu9OWKDd3FVWVk0aJ+AEPwPuGt+gZ2t7NnjF6MLMbtAWZIJgAcK39TbL5Ei2KEotWbHpsoe1j9sKALigd4ahvUevcqqdHaIxRzEZbJ85Afci8BA8FauFWomVS6q0XCMhqx4aT1dGss2hvNefccCc3S4XtiHa02GQEMiEeUM5z7AhMqPACrtv4IYKlxqaMHsWZG/A5V29+Yg+A+4DARd3gGvxlImyRV5pi4pN6gFpRwKwGzBfNUJCabdrHbQOgxsB3dHyIYfgRtzHoKseKM0eBI0CevQ7R4SFTFiYXy+2xozGUA6mAd9hFPDTDs5Mv990Y4VgwHBH8l7BgxSYUp8ihAEnw4NCy919XO0G+IhqaBKxAlwNZQ3rZ8DVvsFqDYc7WVwYjbzW4i5lI6PIq5aoOqwVQTqsFfKWAq6DuBtRr2sdsJJwdKHQQCwfO9C/zpyQuhF1I+YroX0loc4YByVWyAtxkbejqVwrmbXiinazQS1uLOdfynkDBT9mWlNlrxqCg08pzJUHwSI1NEtnFfR0F8whwxBREH3pBmrgwmpXISRcY1dp3kNiAQIyKqACp0xvAA4u5H1pb3v8YvwrK++qxo2n++RtvIJ1vht4CarFFzofsWy1xZVr7dkFZJR5xZaNQLYj2QykFQnomgRzC0scokATU+MzIIlrgWvL7YDbPrN91vaI7bOACGVxBRT2hSBCMcs4jMVcKrvD6UY8Z8N0tPVchT8OPM1xUbGcf7EQ9Bf8eK59vebVVdlQz9UBBQ01jbYHXB1RaeCq8SEavitZBQ1cLyK9wi94Cwx0BX0KjdEwNEGN2ehKFjyWTtqnC8pH+78D/sABVbP4sLRtOT6+PHHZuXw9SJdF1ZWtADYbSY8IB4O+HZx8hVqtp+uGQIbUyQSdWLA85oQiJDqlA5/fnSUIk2kIluUGmjJbQ7n2HZSfn/vfzz7NIdRgcYET5Cdz7blG2FQplWfAfbTge5hP6wJXKY9j6ThybLw6NNKIjdSuLESFpmx4AFwHQVODg1lAWaQ0yldZ3A5wu0kx7oaQTwBRStXIroEbqak00A1PZcvlc1V/pNCOmfa6Fvd/Opxb77Un8HwMJNXDWM4dyVspC7WVpjGCBn9QPXlmcR8Gc4/kvbcCd2i4OJiono8Vk1PtpSKrWkJbXBdzl7CAwnRXmEfEwe4qIegV4KpcGMRnHcKNavLRwA0ljDPSwA2JzFl0omgNmtZ6IHzuD19kE+t7Euu97RE+H8sHsZw7WrCzDrHVyq4b/Luo7bDDekNvnrkKjwSR9/ghq4BLsbK4A7HMuYvm6Yv52FhzzsDlFmuHYHEdDGM0u8DVU17AsmpD68AIwc7WI9xgNbWOqrHDemQ2cH+VOEPZY1PFdtxoDaq2rlvxBsA9m17XIN/6hkf+TLwQxE1nsmjnXOowEYK5Bd1FCLnUpsIpNXdTlbt02awXn0XqyF6tIcBMpw50Khc+gYOP6xEG7pdannBHakU7uHeXbrjHa3yPh90xil+3mfkeP/yRH9YBriCEEUyE48rz5xdOnFz89YzZP9y8nsKFGmuqCQAegUZInxBlcQG4iAkfQbnB8jrT2vSMwRXgcjU8lYFCnBrwATNWCQYtnGbI5padRLZ5J+B+OFl/5HC89w9MFIJ41pqu+AWP2hiSBgT6zBisIADc3kC8lR1QeIYKJAsJDQlbHYrpvFiAobZOYLiSkiCm3EHEV0SkiAmk/BDSaUZ9vMBd0w6+BrWPkFb7yCGrP1ABl2MALsaE2448e27+2PGF46fMS0Ptq/MoUyTLlrSUFlPApItIQGivRO+GvFvp5S5IWIPaDXBRuMRqYh1XVyESEoArNXDBSwy5LAds2GitNzYVLO7/8L253sv3jr8HPjJhesOmPd/E1VA4GFJdAFyugSvCuwG3VwzTfJoecDWaVVYBRhU4iEB+UfM/ngF3neTXrejvAhcTHmFCLZuf/G36x59mjv2avZi0L19Hc2lUWBZ1G+YFWaF0QgqDd2BwooxAe5RaHrM8ZgccWiSwUNrrXeByyQmse13gqgy+GmONuWxhfrlgr4dMAO4fvsj+sth+YOQ9zBvjpp/IumM5J2OxFpEuZhEhhIIlUhZXBHcHLlUqKWuTYpomBkRmwh1MHejXU8MIYIwo3NNPy+LeCo6N/EwXuMDVw5Q4rvj15PTB768cOZG9kLDHp9H1BWSURLUpGwq7ti8CJcTUjcw0P4E7IfeQUAVhkCbvWFyuZlUr4Pown4ZRIRhk8YFoZSE+VbDuAtz/fLyw3hEPg8u7vjdueknDncg5OZfbTHqER6BdA+EZ5qDWeFfg+oj06mE9o+sjQDPc9zDxkHsUJhb5WLm5Txu4a7yFjYxa0AmFPC4HOXEeYoojLM+cmzl4aOrICeP8oDM8GU3fQOmcLNVkrS0bjmy70o+g9AADI4Beo4oOAXdCGJndBS5k08FV4FISybrADcDjhRoaU4RsB4trpY7CzRogJXJex+L+4Yvs1zeaa15+An9CW6/pXi64eY+7HECGKFUEUEipRJyHitDYK5vpndU+rhdhLyLa6HZWKArdEKuAqypnqvqwEVyFniKq3tnowKUAXDUtOESUECYv9s8d/GHq6K/m+ZiTGAsvX0OLWZmvyGpD1izRdvkq4AonZHpTLAWY0QIlTFUGwmpIgljl44aSYQG1X6gyUxFxMbsMigW34nDreH0FuP/dtyZMxlunwvaYngchhWx7umyXEXcE8xhRo0o68f5dB9cDZxdzJyROSHQJUXU1CTeiIDIMg0/UqqRaJnukxx6V7Ak0S64JzjBhYQSt20ov9p5mh+hP6D3eL9Af0sDDCGIqqJIiDQlwEadna199lzh+KnvuUjM5jidm6GxaZkqy1BA1R7R8DCNRIXTmfkicgFohcMx7tladc0iedMahdV1BJGCQKkR1EJ1DWd7HLNUMb533ezFj/6cvsivA/cMX2f/1RCH5ZHO6GrjXq24VU1tQl5NIJa6pDvlhGuOdRO8Ig9Y0dU+v9JGGVHiIeQiamWBJgsWuQyTXdLsnCdwe4VXbVzXGg/a4sPeCwh5kV98D9/JGfcxDAhcuBIQEPCTAj7EDcW2+/uXBwaO/Lp25UBscCUevkmtLfCkv8jVatUg7wJEa8xtRFkQE3qL7KIHuCCV3IIqsCg3XrKWai6KfDAhNt6I1wE3kvP/xR/MPa4D7hy+y/+VMKfGg41UfwConDG/MsBcb4TJmNqc+71rcLnDJ3YALXU0RswNgHulUS0ilBzQl+BOAq7YeEae3o9MOj7vLV+Omh9rVkH0wIK6+6vey/5DABd07xUOKKJxSOxQ3llpfHYr/9Mv8b2crlxLe8BS6usAWTG5WabmFrZBGHIbSwWwzxOAtCrg6mRApI7L6a98WuDqbFlGead8E3KTp/efjBZ1OuMni6qf+t1Ol5O0ciwfA5V3fkjC8ccPOWqRBuMNJwAiG2xEK1pRJApXDu1hcDH2kzPKJEzIfQV9UAHRm0GoFDbanDdw1FheUNVbZm3vZf0jkPeTbqQau6qMOoNFcLmatb35IHj46+9uZyoVBe2gyujLPFgxuVkipie0IWlwVE1VJgSjUunBRVDLhbsBVEhldFisXhrUC3ITp/S/HOqi9jcXV2P2fD+cuZqFh7XFvCcObNJyCw1pUOIyEMCv+PoELzhC3fGKBmjuw6wOs+pwg/wJu7tO1uFoGoQdfXXFYDaa7Ynf1wQ9QsHjIt3MmuVrctavgRiJTsA/+NPLj0dmTZ8rnBqz4WHj5OplN00wR5WuhgwQMItYiLAQqZw4SGridsuUdXYXVwMVCmnYHuL+lrP/+IHgIve02Fle/9p++yL4zVntMpjeeC+JKv3cw606ZTi0UDpMuIxFnWCdZlcwqhvrZXSwuYuA5OSH0PVseRA9uCMD1EDyJgJLXwW6v47fbNQn9w2rSxp0KrasX9AfAzV1x+YQPuF8caz8BQ5GSeaAWKgpV9/ufx374+frx3wrnBqzYSDA2Hc0soXQR5ZZDmKSuAuKIiAhDxQH6eVTithcor/7J2lXodb/2KvnwDBemHSVy7r/Fqz289nb+f+3gE4pb5E0sAAAAAElFTkSuQmCC;" vertex="1" parent="1">
          <mxGeometry x="20" y="30" width="232" height="211" as="geometry" />
        </mxCell>
      </root>
    </mxGraphModel>
  </diagram>
</mxfile>
